PathFileType  4	(X/Y/Z) C:\Users\antoi\Documents\MyRepositories\mobilecap\ResultsAnalysis
DataRate	CameraRate	NumFrames	NumMarkers	Units	OrigDataRate	OrigDataStartFrame	OrigNumFrames
100.0	100.0	4	51	mm	100.0	1	132
Frame#	Time	r_knee			r_shank_antsup			r_ankle			r_calc			r_5meta			r_toe			L_knee			L_shank_antsup			L_ankle			L_calc			L_5meta			L_toe			r_sh2			r_sh3			r_sh4			L_sh2			L_sh3			r_thigh1			r_thigh2			r_thigh3			r_thigh4			r_thigh5			L_thigh1			L_thigh2			L_thigh3			L_thigh4			r.ASIS			r.PSIS			L.ASIS			L.PSIS			C7			R_Shoulder			L_Shoulder			R_Sternum			L_Sternum			R_humerus			R_elbow_med			R_elbow_lat			R_forearm			R_wrist_radius			R_wrist_ulna			L_humerus			L_elbow_med			L_elbow_lat			L_forearm			L_wrist_radius			L_wrist_ulna			R_HJC			L_HJC			R_HJC_reg			L_HJC_reg			
		X1	Y1	Z1	X2	Y2	Z2	X3	Y3	Z3	X4	Y4	Z4	X5	Y5	Z5	X6	Y6	Z6	X7	Y7	Z7	X8	Y8	Z8	X9	Y9	Z9	X10	Y10	Z10	X11	Y11	Z11	X12	Y12	Z12	X13	Y13	Z13	X14	Y14	Z14	X15	Y15	Z15	X16	Y16	Z16	X17	Y17	Z17	X18	Y18	Z18	X19	Y19	Z19	X20	Y20	Z20	X21	Y21	Z21	X22	Y22	Z22	X23	Y23	Z23	X24	Y24	Z24	X25	Y25	Z25	X26	Y26	Z26	X27	Y27	Z27	X28	Y28	Z28	X29	Y29	Z29	X30	Y30	Z30	X31	Y31	Z31	X32	Y32	Z32	X33	Y33	Z33	X34	Y34	Z34	X35	Y35	Z35	X36	Y36	Z36	X37	Y37	Z37	X38	Y38	Z38	X39	Y39	Z39	X40	Y40	Z40	X41	Y41	Z41	X42	Y42	Z42	X43	Y43	Z43	X44	Y44	Z44	X45	Y45	Z45	X46	Y46	Z46	X47	Y47	Z47	X48	Y48	Z48	X49	Y49	Z49	X50	Y50	Z50	X51	Y51	Z51	

1	0.00000000	-38.80880	483.40449	-148.37784	31.05739	411.72604	-154.49243	89.62807	93.55293	-177.63045	53.39118	46.15620	-235.81516	214.69037	91.04024	-127.61479	236.87572	136.49923	-176.56649	-359.05204	482.25185	-425.84687	-367.33339	386.13263	-409.35458	-593.81628	133.89921	-394.11358	-678.97386	119.94279	-347.73148	-518.96513	38.98438	-425.31328	-466.01323	52.62050	-368.62006	67.84290	304.68616	-161.69728	-31.05605	387.24258	-118.62777	-2.21022	276.11382	-122.03892	-429.64050	437.19224	-451.92303	-498.49099	336.86397	-454.52969	-110.43453	752.10465	-118.78274	-58.84603	657.25246	-136.03531	-92.14649	607.40069	-104.98445	-208.75988	693.82779	-98.64936	-143.13846	591.99342	-119.86591	-207.73983	699.39138	-447.30077	-234.34214	564.56199	-421.95028	-309.69914	713.55665	-483.50119	-338.27605	587.46632	-446.02670	-136.82960	923.62642	-165.39988	-345.90446	942.84918	-232.68958	-147.88919	925.58028	-423.36510	-348.03329	956.48206	-323.95025	-315.38071	1409.60111	-287.63780	-265.41312	1377.39115	-117.70593	-221.46677	1382.48583	-432.15014	-189.55361	1337.17535	-252.43157	-187.81229	1340.24278	-298.93927	-251.91382	1245.64193	-58.53272	-349.21264	1054.53824	-116.37745	-351.52054	1066.80973	-47.71165	-313.48425	997.30867	-14.35646	-290.78137	825.63263	-29.10917	-332.41430	834.82015	2.23283	-159.68342	1258.71441	-484.56580	-175.55819	1046.88569	-458.51478	-139.23339	1071.50103	-528.43583	-66.46191	1053.44648	-515.49377	66.90873	954.32441	-454.30628	49.89148	934.20304	-497.08391	-215.40676	831.73771	-188.84423	-225.82344	837.68905	-378.02376	-203.53743	825.98662	-214.13159	-207.46919	851.16028	-382.62954	
2	0.01000000	-23.80468	483.99507	-147.59665	45.71094	411.14404	-155.12586	96.23520	92.14601	-178.04360	57.22057	48.17654	-236.41745	220.41572	83.39688	-129.00369	245.18480	127.16151	-178.37509	-342.72795	480.75137	-424.91477	-353.62602	384.60576	-408.76754	-587.65282	139.12888	-394.89164	-673.18185	129.37336	-348.31832	-517.48005	39.81357	-425.33519	-463.98254	51.84284	-368.62460	80.80084	303.56044	-162.43508	-16.35536	387.73163	-118.61911	10.69942	276.14130	-122.30036	-414.49009	437.99453	-450.93434	-486.07066	339.50845	-454.04310	-94.76842	752.33936	-115.89409	-43.70007	657.37474	-133.82405	-77.69347	607.37379	-103.96126	-193.75894	694.59695	-97.84027	-128.66830	592.56646	-119.66746	-191.13697	698.04637	-445.31418	-217.80632	563.08717	-420.47565	-293.05200	712.30345	-481.51148	-321.63351	586.05377	-444.31656	-121.11175	923.48505	-163.19649	-329.98213	942.62504	-231.20546	-130.80177	924.31026	-421.13805	-331.35522	955.93089	-322.81735	-301.70663	1408.95407	-284.80902	-251.55580	1376.60927	-114.92156	-207.93190	1382.30149	-429.71172	-175.24767	1337.27344	-249.72119	-173.65280	1340.34453	-296.22381	-237.20416	1244.69975	-56.29104	-333.13998	1053.23227	-115.15506	-336.04826	1065.37121	-46.58778	-298.35958	995.83645	-13.12302	-275.82478	824.12067	-28.23089	-317.46654	833.32667	3.01892	-146.84038	1257.81957	-482.48945	-164.35472	1046.17788	-455.77608	-128.40498	1070.21783	-525.94158	-55.63123	1051.30116	-513.60834	77.25917	950.78551	-453.29472	59.39475	930.68985	-495.96888	-199.63797	831.56710	-186.50202	-209.15771	836.73309	-375.75589	-187.94480	825.72671	-212.02452	-190.47504	850.20210	-380.60565	
3	0.02000000	-8.75637	484.73863	-146.75257	60.25405	410.59802	-155.53776	102.47172	90.85596	-178.32333	60.81317	50.11878	-236.87661	225.80821	76.07285	-130.32065	253.00071	118.21117	-180.07777	-325.85021	479.16216	-423.95981	-339.30038	383.00291	-408.24258	-580.88576	144.53079	-395.59865	-666.69883	139.25923	-348.84294	-515.85077	40.87543	-425.33524	-461.90460	51.05309	-368.60133	93.46205	302.45324	-162.97181	-1.80497	388.32591	-118.40153	23.31218	276.26506	-122.34122	-398.64891	438.70738	-449.94847	-473.03562	342.22334	-453.53973	-79.08126	752.85522	-113.17786	-28.48556	657.79692	-131.71147	-63.09446	607.64680	-102.85121	-178.71081	695.58501	-96.82005	-114.01838	593.35654	-119.22527	-174.26826	696.81978	-443.26959	-200.75965	561.68159	-418.96127	-276.17226	711.00348	-479.44854	-304.53920	584.55490	-442.56942	-105.38605	923.57668	-160.96790	-314.07481	942.63094	-229.79142	-113.70820	923.15109	-418.83419	-314.67815	955.45556	-321.80683	-287.97173	1408.46374	-281.96063	-237.65045	1375.97995	-112.11621	-194.34737	1382.26291	-427.23834	-160.94310	1337.52486	-246.98642	-159.47315	1340.60798	-293.48105	-222.42173	1243.90392	-54.04781	-316.98088	1052.07375	-113.91416	-320.47069	1064.07531	-45.43238	-283.08413	994.52325	-11.87209	-260.66467	822.77589	-27.32730	-302.34027	831.98337	3.81964	-134.03733	1257.06306	-480.45202	-153.18899	1045.59649	-452.96024	-117.72332	1069.02386	-523.42341	-44.91735	1049.22219	-511.73484	87.38472	947.16258	-452.37002	68.68625	927.14024	-494.93285	-183.89326	831.62943	-184.10880	-192.45203	835.88542	-373.43526	-172.39947	825.82223	-209.73175	-173.50941	849.31468	-378.39124	
4	0.03000000	6.34008	485.73975	-145.79608	74.55797	410.11400	-155.57575	108.03487	89.78160	-178.38959	63.97250	51.90975	-237.10835	230.58274	69.36255	-131.48251	259.92203	109.99241	-181.57095	-307.91358	477.39610	-422.97465	-323.82775	381.25555	-407.83667	-572.97511	150.26729	-396.17790	-658.87444	149.99452	-349.25665	-513.94714	42.39815	-425.29325	-459.72449	50.27997	-368.54062	105.57032	301.38051	-163.17370	12.44847	389.09766	-117.82361	35.38319	276.55730	-122.01104	-381.51168	439.24084	-448.97633	-458.84635	345.05727	-453.00836	-63.36668	753.86750	-110.75334	-13.16375	658.74314	-129.76951	-48.23769	608.44439	-101.57604	-163.56046	696.96446	-95.42363	-99.06885	594.53285	-118.34917	-156.91827	695.80261	-441.12945	-182.77324	560.40010	-417.38917	-258.87599	709.60638	-477.26155	-286.61492	582.88489	-440.76673	-89.66778	924.08658	-158.69304	-298.20887	943.04054	-228.50976	-96.61896	922.19357	-416.38862	-298.01896	955.11301	-321.01802	-274.13859	1408.25052	-279.07932	-223.66567	1375.62590	-109.27883	-180.67815	1382.48552	-424.70180	-146.64430	1338.04555	-244.21194	-145.26043	1341.15366	-290.69365	-207.50908	1243.37721	-51.80091	-300.66808	1051.18263	-112.63692	-304.70404	1063.03720	-44.21814	-267.53845	993.49815	-10.58812	-245.13243	821.73461	-26.37708	-286.88207	830.91229	4.65141	-121.30325	1256.55988	-478.48581	-142.08360	1045.24588	-450.00050	-107.31268	1067.99390	-520.85004	-34.41901	1047.26779	-509.88080	97.09345	943.38942	-451.60306	77.59943	923.52963	-494.04562	-168.20947	832.10742	-181.62675	-175.68716	835.23230	-371.02080	-156.94961	826.54797	-207.11388	-156.60970	848.56072	-375.83618	
